<?xml version="1.0" encoding="UTF-8"?>
<!-- Do not edit this file with editors other than diagrams.net -->
<!DOCTYPE svg PUBLIC "-//W3C//DTD SVG 1.1//EN" "http://www.w3.org/Graphics/SVG/1.1/DTD/svg11.dtd">
<svg xmlns="http://www.w3.org/2000/svg">
<defs>
  <linearGradient x1="0%" y1="0%" x2="0%" y2="100%" id="mx-gradient-d6c7b1-1-d4d4d4-1-s-0">
    <stop offset="0%" style="stop-color: rgb(214, 199, 177); stop-opacity: 1;"/>
    <stop offset="100%" style="stop-color: rgb(212, 212, 212); stop-opacity: 1;"/>
</linearGradient>
<linearGradient x1="0%" y1="0%" x2="0%" y2="100%" id="mx-gradient-dae8fc-1-7ea6e0-1-s-0">
<stop offset="0%" style="stop-color: rgb(218, 232, 252); stop-opacity: 1;"/>
<stop offset="100%" style="stop-color: rgb(126, 166, 224); stop-opacity: 1;"/>
</linearGradient>
<filter id="dropShadow">
<feGaussianBlur in="SourceAlpha" stdDeviation="1.7" result="blur"/>
<feOffset in="blur" dx="3" dy="3" result="offsetBlur"/>
<feFlood flood-color="#3D4574" flood-opacity="0.4" result="offsetColor"/>
<feComposite in="offsetColor" in2="offsetBlur" operator="in" result="offsetBlur"/>
<feBlend in="SourceGraphic" in2="offsetBlur"/>
</filter>
</defs>
<g filter="url(#dropShadow)">
  <path d="M 90.1 171.25 L 123.25 235.15 C 123.25 249.56 108.7 261.25 90.75 261.25 C 72.8 261.25 58.25 249.56 58.25 235.15 Z" fill="#cce5ff" stroke="#71695d" stroke-width="4" stroke-miterlimit="10" transform="rotate(35,90.75,216.25)" pointer-events="all"/>
  <path d="M 47 205.62 Q 78.8 205.62 78.8 233.44 Q 78.8 261.25 47 261.25 Q 62.9 233.44 47 205.62 Z" fill="#8c8274" stroke="#71695d" stroke-width="4" stroke-miterlimit="10" transform="rotate(-210,62.9,233.43)" pointer-events="all"/>
  <ellipse cx="158.5" cy="287" rx="5" ry="15" fill="#fff7f1" stroke="#71695d" stroke-width="4" transform="rotate(-25,158.5,287)" pointer-events="all"/>
  <ellipse cx="81" cy="287" rx="5" ry="15" fill="#fff7f1" stroke="#71695d" stroke-width="4" transform="rotate(25,81,287)" pointer-events="all"/>
  <path d="M 117 128 L 187 264 C 187 277.25 155.66 288 117 288 C 78.34 288 47 277.25 47 264 Z" fill="#cce5ff" stroke="#71695d" stroke-width="4" stroke-miterlimit="10" pointer-events="all"/>
  <path d="M 106.52 211.22 Q 129.2 211.22 129.2 279.03 Q 129.2 346.83 106.52 346.83 Q 117.86 279.03 106.52 211.22 Z" fill="#8c8274" stroke="#71695d" stroke-width="4" stroke-miterlimit="10" transform="rotate(90,117.86,279.03)" pointer-events="all"/>
  <ellipse cx="176.91" cy="255.34" rx="10.085" ry="14.665" fill="#fff7f1" stroke="#71695d" stroke-width="4" transform="rotate(130,176.91,255.34)" pointer-events="all"/>
  <ellipse cx="117.63" cy="120.63" rx="50.625" ry="50.625" fill="#fff7f1" stroke="#71695d" stroke-width="5" pointer-events="all"/>
  <ellipse cx="141.75" cy="130" rx="1.25" ry="5" fill="#8a8a8a" stroke="#696969" pointer-events="all"/>
  <ellipse cx="141.75" cy="130" rx="0.75" ry="4.5" fill="none" stroke="#696969" pointer-events="all"/>
  <path d="M 138.17 174.69 L 174.81 234.6 C 174.81 248.11 161.36 259.07 144.78 259.07 C 128.19 259.07 114.74 248.11 114.74 234.6 Z" fill="#cce5ff" stroke="#71695d" stroke-width="4" stroke-miterlimit="10" transform="rotate(-30,144.77,216.88)" pointer-events="all"/>
  <path d="M 148.02 212.22 Q 179.82 212.22 179.82 245.86 Q 179.82 279.49 148.02 279.49 Q 163.92 245.86 148.02 212.22 Z" fill="#8c8274" stroke="#71695d" stroke-width="4" stroke-miterlimit="10" transform="rotate(55,163.92,245.86)" pointer-events="all"/>
  <path d="M 65.69 84.51 C 38.59 84.51 31.82 104.76 53.5 108.81 C 31.82 117.72 56.21 137.16 73.82 129.06 C 86.02 145.26 126.67 145.26 140.22 129.06 C 167.32 129.06 167.32 112.86 150.38 104.76 C 167.32 88.56 140.22 72.36 116.51 80.46 C 99.57 68.31 72.47 68.31 65.69 84.51 Z" fill="url(#mx-gradient-d6c7b1-1-d4d4d4-1-s-0)" stroke="#d4d4d4" stroke-width="4" stroke-miterlimit="10" transform="rotate(-35,99.57,104.76)" pointer-events="all"/>
  <path d="M 55.28 29 L 148 96.31 C 148 107.41 118.35 116.41 81.77 116.41 C 45.2 116.41 15.55 107.41 15.55 96.31 Z" fill="url(#mx-gradient-dae8fc-1-7ea6e0-1-s-0)" stroke="#6c8ebf" stroke-width="4" stroke-miterlimit="10" transform="rotate(-30,81.77,72.71)" pointer-events="all"/>
  </g>
</svg>
